HIERARCHY
ROOT Spine
{
    OFFSET 0.0 0.0 -0.0
    CHANNELS 6 Xposition Yposition Zposition Zrotation Xrotation Yrotation
    JOINT ShoulderCenter
    {
        OFFSET 0.0 33.62454605102539 0.0
        CHANNELS 3 Zrotation Xrotation Yrotation
        JOINT LeftShoulder
        {
            OFFSET 17.760719299316406 0.0 0.0
            CHANNELS 3 Zrotation Xrotation Yrotation
            JOINT LeftElbow
            {
                OFFSET 29.747974395751953 0.0 0.0
                CHANNELS 3 Zrotation Xrotation Yrotation
                JOINT LeftHand
                {
                    OFFSET 33.529144287109375 0.0 0.0
                    CHANNELS 3 Zrotation Xrotation Yrotation
                    End Site
                    {
                        OFFSET 13.41165828704834 0.0 0.0
                    }
                }
            }
        }
        JOINT RightShoulder
        {
            OFFSET -17.760719299316406 0.0 0.0
            CHANNELS 3 Zrotation Xrotation Yrotation
            JOINT RightElbow
            {
                OFFSET -29.747974395751953 0.0 0.0
                CHANNELS 3 Zrotation Xrotation Yrotation
                JOINT RightHand
                {
                    OFFSET -33.529144287109375 0.0 0.0
                    CHANNELS 3 Zrotation Xrotation Yrotation
                    End Site
                    {
                        OFFSET -13.41165828704834 0.0 0.0
                    }
                }
            }
        }
        End Site
        {
            OFFSET 0.0 13.44981861114502 0.0
        }
    }
    JOINT LeftHip
    {
        OFFSET 15.640899135964778 -15.640899135964778 0.0
        CHANNELS 3 Zrotation Xrotation Yrotation
        JOINT LeftKnee
        {
            OFFSET 0.0 -42.08383560180664 0.0
            CHANNELS 3 Zrotation Xrotation Yrotation
            JOINT LeftFoot
            {
                OFFSET 0.0 -50.35370635986328 0.0
                CHANNELS 3 Zrotation Xrotation Yrotation
                End Site
                {
                    OFFSET 0.0 0.0 20.141483306884766
                }
            }
        }
    }
    JOINT RightHip
    {
        OFFSET -15.640899135964778 -15.640899135964778 0.0
        CHANNELS 3 Zrotation Xrotation Yrotation
        JOINT RightKnee
        {
            OFFSET 0.0 -42.08383560180664 0.0
            CHANNELS 3 Zrotation Xrotation Yrotation
            JOINT RightFoot
            {
                OFFSET 0.0 -50.35370635986328 0.0
                CHANNELS 3 Zrotation Xrotation Yrotation
                End Site
                {
                    OFFSET 0.0 0.0 20.141483306884766
                }
            }
        }
    }
}
MOTION
Frames: 4
Frame Time: 0.03333333333333333
117.79999542236328 -13.40000057220459 18.0 36.427602519796515 -2.040497740912757 -94.3848372408586 -1.9466865233303067e-06 -1.225789607484729e-06 1.7145103298342503 103.01109858069715 -12.731302626251269 -154.80921307915287 3.1655920628731847e-06 -2.993149694577932e-06 77.35218250079656 3.1805546814635168e-15 -6.3611093629270335e-15 1.5902773407317584e-15 -107.69745089756645 -14.322407248999838 152.00113983179767 -1.1679459833962387e-06 3.1665069991099565e-07 -81.13517452986163 1.987846675914697e-16 -6.361109362927033e-15 -1.1927080055488186e-15 139.99041435759278 -69.77506581967279 -144.37768982490053 48.5672170421007 10.911903913878387 -54.757771896520055 0.0 0.0 -3.975693351829396e-16 -152.20749278649578 -71.37502232314439 132.51412170319134 -51.387864041956604 13.668677014972982 62.05901983229509 7.95138670365879e-16 -1.590277340731758e-15 -2.9817700138720464e-15
117.9000015258789 -13.300000190734863 18.099998474121094 36.564242819547516 -1.6976313381486698 -93.24880356657201 1.1120551874286667e-06 -3.6307534499746474e-06 0.44834764912471975 103.08223063609162 -12.543752852828696 -154.89558085482616 1.7251553217847718e-06 5.383727951561319e-07 77.2044632771387 -2.2069531490250793e-32 -6.361109362927035e-15 -3.975693351829397e-16 -106.9054240988179 -14.438352732127003 152.02738309212833 3.1104439377025646e-07 -2.935550126797941e-06 -80.85563751328002 1.1927080055488192e-15 4.9696166897867505e-17 4.373262687012336e-15 143.45679372818282 -70.65717217760354 -141.92298872684913 48.26752813992179 11.30177470069637 -53.817460358920776 1.5902773407317584e-15 -7.951386703658791e-16 3.975693351829396e-15 -149.11692133306587 -70.13463274715042 134.6296996757184 -51.991508012868714 13.32005691462075 62.61729884109925 -2.3854160110976376e-15 6.620859447075238e-32 -3.1805546814635168e-15
117.70000457763672 -13.40000057220459 18.19999885559082 36.427609050115784 -1.7006272880059898 -93.91434554589402 1.924026105227506e-06 -7.70586193051286e-07 1.1466405542162765 102.67667434509649 -12.69424919434175 -154.97181265524227 2.7794546560908367e-06 6.192479632019462e-07 76.91705998666856 -3.1805546814635164e-15 6.361109362927033e-15 -1.590277340731758e-15 -107.31387794810394 -14.299748767781987 152.6326858275257 2.3482362245184447e-06 1.5589376161537035e-06 -81.42326546070558 3.975693351829396e-16 -4.969616689786744e-17 2.782985346280577e-15 142.2681802842564 -70.33459640043071 -142.99842116365897 48.570910427013864 10.960002646753553 -53.51644023550459 0.0 0.0 -1.1927080055488188e-15 -149.85664800046268 -70.45937009030663 133.70528159823863 -51.75295935387754 13.211498340729424 60.092438087135235 7.951386703658794e-16 -2.0690185772110117e-32 -2.9817700138720476e-15
117.70000457763672 -13.199999809265137 18.19999885559082 36.427610915570774 -1.3606462367734289 -94.4680819945963 3.650384844641776e-06 -1.9195024574255713e-06 1.5769273214276436 102.7686360238883 -12.786062306759003 -154.7169207635413 -2.4199245883563325e-06 5.156496108579114e-07 76.75284681192953 0.0 0.0 -7.951386703658792e-16 -106.89360418709329 -14.131200875655454 152.45341255790788 -3.2090595122676916e-06 -6.116952956471342e-07 -81.02215627934683 -7.951386703658791e-16 -6.460501696722767e-15 5.963540027744092e-16 140.4771220214891 -70.17166950688366 -144.2292782169763 48.47569293277675 10.18837628399296 -53.45760165370888 -1.5902773407317584e-15 3.862168010793889e-32 -2.782985346280577e-15 -150.80349757399682 -71.36745384352078 133.53500780851476 -51.00509708157165 13.994934070903504 60.872987047788605 -1.5902773407317584e-15 -1.5902773407317584e-15 1.3914926731402886e-15
